<?xml version="1.0" standalone="no"?>
<!DOCTYPE svg PUBLIC "-//W3C//DTD SVG 20010904//EN"
 "http://www.w3.org/TR/2001/REC-SVG-20010904/DTD/svg10.dtd">
<svg version="1.0" xmlns="http://www.w3.org/2000/svg"
 width="512.000000pt" height="406.000000pt" viewBox="0 0 512.000000 406.000000"
 preserveAspectRatio="xMidYMid meet">

<g transform="translate(0.000000,406.000000) scale(0.100000,-0.100000)"
fill="#000000" stroke="none">
<path d="M2370 4050 c-52 -5 -141 -18 -197 -29 -55 -12 -104 -21 -108 -21 -3
0 -5 -8 -3 -17 2 -14 -5 -19 -31 -21 -24 -3 -31 0 -26 9 9 14 -30 6 -80 -16
-16 -7 -59 -23 -95 -35 -150 -51 -376 -180 -525 -298 -123 -98 -355 -336 -355
-365 0 -3 17 -7 38 -9 24 -2 36 -8 34 -16 -1 -8 2 -11 8 -7 6 4 9 9 7 11 -6 7
219 232 293 294 355 294 833 455 1295 437 468 -19 876 -184 1236 -499 52 -46
146 -146 228 -243 41 -49 147 -218 190 -303 23 -45 45 -82 49 -82 4 0 8 -11 8
-23 1 -20 -2 -23 -21 -19 -17 3 -22 -1 -20 -15 3 -34 16 -50 41 -50 20 0 24 3
19 21 -5 15 -4 17 3 7 7 -9 12 -10 16 -2 10 16 26 14 26 -3 0 -8 -8 -17 -17
-20 -22 -6 118 -5 169 1 28 3 35 8 31 20 -3 8 -9 10 -12 5 -7 -11 -141 -10
-141 1 0 5 -5 5 -12 1 -7 -4 -8 -3 -4 5 4 6 12 9 17 6 5 -4 9 -1 9 5 0 7 -7
10 -15 6 -8 -3 -25 -1 -37 4 -21 8 -20 9 10 9 17 1 32 4 32 9 0 4 -22 53 -50
110 -41 85 -53 102 -72 103 -19 0 -20 2 -5 7 16 7 15 12 -13 55 -30 48 -31 48
-76 44 -24 -2 -47 0 -50 4 -2 4 12 9 33 11 20 2 39 9 41 17 3 8 0 11 -7 7 -6
-4 -9 -2 -5 7 6 17 -21 41 -35 32 -7 -3 -8 0 -5 9 3 9 1 16 -6 16 -6 0 -9 4
-5 9 7 13 -123 168 -216 257 -290 276 -663 465 -1055 534 -125 21 -402 32
-534 20z m237 -6 c-3 -3 -12 -4 -19 -1 -8 3 -5 6 6 6 11 1 17 -2 13 -5z m-169
-15 c-2 -6 -8 -11 -13 -11 -6 0 -16 -4 -23 -10 -7 -6 -15 -8 -19 -5 -3 4 -15
1 -27 -5 -21 -11 -21 -11 -2 10 10 11 32 23 50 25 17 2 33 5 34 5 2 1 2 -3 0
-9z m-168 -20 c0 -5 -4 -7 -10 -4 -5 3 -10 1 -10 -6 0 -7 -3 -10 -6 -6 -8 7 4
27 17 27 5 0 9 -5 9 -11z m50 1 c0 -5 -2 -10 -4 -10 -3 0 -8 5 -11 10 -3 6 -1
10 4 10 6 0 11 -4 11 -10z m-90 -9 c0 -5 -6 -13 -13 -19 -10 -8 -13 -6 -13 9
0 10 6 19 13 19 7 0 13 -4 13 -9z m1977 -897 c-3 -3 -12 -4 -19 -1 -8 3 -5 6
6 6 11 1 17 -2 13 -5z"/>
<path d="M2020 3986 c0 -2 7 -6 15 -10 8 -3 15 -1 15 4 0 6 -7 10 -15 10 -8 0
-15 -2 -15 -4z"/>
<path d="M2370 3430 c-105 -17 -125 -21 -210 -46 -216 -64 -416 -182 -585
-346 -92 -89 -99 -98 -82 -110 18 -13 17 -14 -2 -14 -11 0 -17 5 -15 11 9 17
-46 -48 -73 -87 l-26 -38 -131 0 c-338 -1 -514 -5 -510 -12 3 -4 -3 -5 -12 -1
-15 6 -14 8 7 16 67 26 75 30 57 34 -10 3 -18 9 -18 14 0 6 4 8 9 4 5 -3 17 2
26 11 13 14 14 19 3 25 -11 8 -5 13 13 11 3 -1 13 12 23 29 9 16 12 29 7 29
-6 0 -11 -4 -11 -10 0 -5 -7 -7 -16 -3 -9 3 -20 0 -25 -8 -6 -10 -9 -10 -9 -2
0 10 -6 10 -25 1 -16 -7 -34 -33 -52 -74 -15 -35 -32 -64 -38 -65 -5 0 -38 -1
-72 -2 -33 -1 -59 -6 -55 -11 3 -5 -4 -7 -16 -4 -18 5 -122 -35 -122 -47 0 -3
752 -5 1671 -5 1120 0 1668 3 1664 10 -3 5 -1 10 4 10 6 0 11 -5 11 -10 0 -9
17 -9 60 -1 3 1 -2 6 -10 11 -12 7 -10 9 7 7 12 0 20 -4 17 -9 -2 -4 27 -4 66
-1 49 4 70 3 70 -6 0 -6 5 -11 11 -11 5 0 7 5 3 12 -5 7 -3 8 6 3 7 -4 16 -2
21 6 5 8 9 9 9 3 0 -6 16 -10 35 -9 19 1 35 -1 35 -6 0 -4 14 -7 31 -7 17 1
25 4 19 8 -9 6 -9 9 -1 14 6 4 9 12 6 17 -4 5 15 9 42 10 26 1 59 5 73 9 15 5
-6 6 -50 2 -41 -3 -95 -5 -120 -4 -184 8 -261 10 -301 11 -44 1 -47 3 -82 54
-20 28 -62 80 -94 115 -57 61 -59 62 -93 52 -20 -5 -46 -8 -59 -5 -45 8 -34
15 23 15 42 0 56 3 53 13 -2 6 -9 11 -15 10 -5 -1 -32 -4 -60 -7 -39 -4 -52
-2 -56 10 -9 24 -9 24 33 24 48 0 61 16 27 32 -14 6 -26 14 -26 18 0 4 -17 19
-38 34 -38 26 -82 35 -82 16 0 -5 -5 -10 -11 -10 -5 0 -7 5 -4 10 3 6 0 10 -7
10 -10 0 -9 3 2 9 8 6 18 7 22 5 4 -3 8 -1 8 3 0 10 -100 68 -190 110 -76 36
-195 74 -300 98 -87 19 -383 29 -470 15z m57 -66 c-3 -3 -12 -4 -19 -1 -8 3
-5 6 6 6 11 1 17 -2 13 -5z m-60 -10 c-3 -3 -12 -4 -19 -1 -8 3 -5 6 6 6 11 1
17 -2 13 -5z m-110 -10 c-3 -3 -12 -4 -19 -1 -8 3 -5 6 6 6 11 1 17 -2 13 -5z
m-194 -21 c-7 -2 -21 -2 -30 0 -10 3 -4 5 12 5 17 0 24 -2 18 -5z m277 -3 c0
-5 -4 -10 -10 -10 -5 0 -10 5 -10 10 0 6 5 10 10 10 6 0 10 -4 10 -10z m-180
-50 c0 -5 -7 -10 -15 -10 -8 0 -15 5 -15 10 0 6 7 10 15 10 8 0 15 -4 15 -10z
m1022 -25 c3 0 10 -3 14 -7 4 -5 -14 -8 -39 -8 -26 0 -47 2 -47 5 0 10 45 23
55 16 6 -3 13 -6 17 -6z m-147 -5 c4 -6 12 -7 18 -4 7 4 8 3 4 -2 -13 -14 -54
-12 -54 3 0 15 23 17 32 3z m-215 -25 c0 -8 -4 -15 -10 -15 -5 0 -10 7 -10 15
0 8 5 15 10 15 6 0 10 -7 10 -15z m-343 -9 c3 -3 -10 -6 -30 -6 -20 0 -40 0
-44 -1 -4 0 -9 3 -10 8 -3 9 74 9 84 -1z m192 -1 c12 2 19 0 16 -6 -4 -5 -9
-8 -13 -5 -4 2 -16 0 -27 -5 -17 -6 -17 -8 -2 -8 15 -1 22 -12 18 -33 -1 -7
31 -12 52 -9 4 0 7 -4 7 -10 0 -6 -8 -8 -19 -4 -14 4 -18 1 -17 -17 1 -21 -3
-22 -39 -19 -44 3 -85 20 -52 21 11 0 15 4 11 12 -4 7 -3 8 5 4 6 -4 8 -13 4
-19 -4 -7 -1 -7 9 1 9 8 14 20 11 28 -3 8 0 14 6 14 6 0 11 5 11 11 0 6 -7 9
-15 5 -12 -4 -15 1 -13 24 1 20 6 26 13 20 6 -5 21 -8 34 -5z m-294 -5 c4 -6
-10 -9 -37 -9 l-43 2 35 7 c19 4 36 8 37 9 1 0 5 -3 8 -9z m672 4 c-3 -3 -12
-4 -19 -1 -8 3 -5 6 6 6 11 1 17 -2 13 -5z m120 -10 c-3 -3 -12 -4 -19 -1 -8
3 -5 6 6 6 11 1 17 -2 13 -5z m110 -7 c3 -4 -10 -7 -31 -7 -20 0 -35 4 -32 8
5 9 53 8 63 -1z m-1200 -3 c-3 -3 -12 -4 -19 -1 -8 3 -5 6 6 6 11 1 17 -2 13
-5z m186 -1 c-7 -2 -19 -2 -25 0 -7 3 -2 5 12 5 14 0 19 -2 13 -5z m800 0
c-13 -2 -33 -2 -45 0 -13 2 -3 4 22 4 25 0 35 -2 23 -4z m51 -1 c3 -5 -1 -9
-9 -9 -8 0 -12 4 -9 9 3 4 7 8 9 8 2 0 6 -4 9 -8z m-919 -12 c-3 -5 -12 -7
-20 -3 -21 7 -19 13 6 13 11 0 18 -4 14 -10z m968 3 c-7 -2 -19 -2 -25 0 -7 3
-2 5 12 5 14 0 19 -2 13 -5z m-1092 -16 c-7 -7 -14 -8 -21 -1 -6 6 -2 10 12
11 16 2 18 -1 9 -10z m916 7 c-3 -3 -12 -4 -19 -1 -8 3 -5 6 6 6 11 1 17 -2
13 -5z m253 2 c0 -9 -30 -14 -35 -6 -4 6 3 10 14 10 12 0 21 -2 21 -4z m-1353
-22 c-3 -3 -12 -4 -19 -1 -8 3 -5 6 6 6 11 1 17 -2 13 -5z m896 -11 c-4 -11
-9 -11 -22 -1 -9 7 -18 14 -20 15 -3 2 7 2 21 1 17 -1 24 -7 21 -15z m202 8
c3 -5 1 -12 -5 -16 -5 -3 -10 1 -10 9 0 18 6 21 15 7z m265 5 c0 -11 -19 -15
-25 -6 -3 5 1 10 9 10 9 0 16 -2 16 -4z m-1470 -21 c0 -8 -4 -15 -9 -15 -13 0
-22 16 -14 24 11 11 23 6 23 -9z m1137 9 c-3 -3 -12 -4 -19 -1 -8 3 -5 6 6 6
11 1 17 -2 13 -5z m43 2 c0 -11 -19 -15 -25 -6 -3 5 1 10 9 10 9 0 16 -2 16
-4z m247 -2 c-3 -3 -12 -4 -19 -1 -8 3 -5 6 6 6 11 1 17 -2 13 -5z m128 -14
c-7 -11 22 -44 45 -53 8 -3 -1 -6 -20 -6 -24 -1 -31 -4 -21 -10 11 -7 9 -10
-9 -16 -13 -4 -27 -2 -34 5 -8 10 -8 11 3 5 10 -6 12 -4 7 4 -4 7 -16 9 -28 5
-11 -3 -35 -6 -53 -6 -23 0 -32 -4 -29 -13 3 -8 -4 -12 -20 -12 -14 0 -23 3
-20 8 6 11 -50 12 -60 2 -4 -4 -24 -9 -44 -10 -20 -1 -38 -7 -40 -13 -2 -5
-10 -10 -18 -10 -17 0 32 50 50 51 6 0 2 4 -9 8 -17 7 -17 8 8 13 19 4 27 1
27 -8 0 -17 75 -20 85 -4 3 6 -1 10 -9 10 -9 0 -16 5 -16 11 0 5 4 8 9 4 5 -3
12 -1 16 5 3 5 15 10 26 10 17 0 18 -3 9 -20 -10 -18 -8 -20 23 -20 78 0 122
21 76 35 -16 5 -18 10 -8 21 13 16 64 20 54 4z m-918 -16 c-3 -3 -12 -4 -19
-1 -8 3 -5 6 6 6 11 1 17 -2 13 -5z m333 -2 c0 -5 -7 -9 -15 -9 -8 0 -12 4 -9
9 3 4 9 8 15 8 5 0 9 -4 9 -8z m507 -6 c0 -8 -8 -11 -21 -8 -19 5 -19 6 0 13
10 4 19 8 20 8 0 1 1 -5 1 -13z m-1166 -19 c-10 -9 -11 -8 -5 6 3 10 9 15 12
12 3 -3 0 -11 -7 -18z m254 13 c4 -6 11 -7 17 -4 7 5 8 2 3 -5 -4 -8 -15 -10
-29 -6 -11 4 -46 11 -76 15 l-55 7 67 2 c37 0 70 -4 73 -9z m-157 -7 c-10 -2
-28 -2 -40 0 -13 2 -5 4 17 4 22 1 32 -1 23 -4z m219 1 c-3 -3 -12 -4 -19 -1
-8 3 -5 6 6 6 11 1 17 -2 13 -5z m310 -10 c-3 -3 -12 -4 -19 -1 -8 3 -5 6 6 6
11 1 17 -2 13 -5z m-837 -20 c0 -2 -16 -4 -36 -4 -19 0 -33 4 -30 8 5 8 66 4
66 -4z m115 7 c3 -5 21 -7 40 -4 l35 6 -14 -29 c-11 -19 -12 -32 -5 -40 8 -9
5 -11 -11 -7 -15 4 -18 9 -11 16 6 6 11 17 11 24 0 10 -17 12 -77 7 -150 -12
-163 -12 -158 -4 3 4 47 12 97 16 79 7 87 9 53 15 l-40 6 37 2 c20 0 39 -3 43
-8z m193 -2 c-2 -6 -7 -10 -11 -10 -4 1 -22 1 -39 1 -40 0 -22 15 23 18 19 2
29 -2 27 -9z m279 -23 c20 -1 29 -5 26 -14 -3 -7 -10 -12 -17 -11 -25 3 -46
-1 -46 -10 0 -9 118 -12 135 -3 10 6 179 13 173 7 -1 -2 -5 -3 -8 -2 -3 1 -18
-6 -33 -16 -17 -11 -27 -13 -27 -6 0 8 -13 10 -42 5 -24 -4 -65 -9 -92 -11
-27 -2 -52 -8 -55 -13 -8 -13 -51 -17 -74 -7 -22 9 -89 -3 -82 -16 4 -5 -1 -9
-10 -9 -9 0 -14 4 -11 9 3 5 -8 11 -25 13 -31 5 -49 -6 -27 -16 7 -2 4 -4 -7
-3 -11 2 -24 5 -30 8 -10 6 -55 4 -110 -6 -16 -3 -79 -10 -140 -15 -60 -5
-123 -11 -140 -14 -16 -3 -22 -3 -12 0 9 3 15 9 13 13 -3 4 3 7 12 8 9 0 116
10 237 22 220 22 350 41 327 49 -7 2 -10 7 -7 11 2 4 -10 7 -28 7 -27 -1 -32
3 -35 24 -2 20 -1 22 7 10 6 -8 11 -10 11 -5 0 6 5 3 10 -5 9 -13 11 -13 20 0
7 11 10 12 10 2 0 -8 6 -12 13 -9 6 2 11 13 9 23 -3 19 -3 19 11 0 7 -10 27
-19 44 -20z m367 25 c3 -5 -1 -12 -10 -15 -20 -8 -29 -1 -19 13 8 13 22 14 29
2z m-196 -19 c9 9 15 9 23 1 13 -13 -20 -20 -87 -18 -27 1 -52 -3 -56 -9 -5
-7 -8 -4 -8 7 0 12 8 17 28 18 15 0 36 4 47 9 13 5 24 3 31 -6 8 -10 13 -11
22 -2z m115 11 c-7 -2 -19 -2 -25 0 -7 3 -2 5 12 5 14 0 19 -2 13 -5z m-463
-14 c0 -8 4 -8 14 0 11 9 15 7 19 -9 3 -11 1 -23 -4 -26 -5 -3 -9 1 -9 8 0 8
-3 9 -8 2 -4 -5 -16 -11 -27 -11 -11 0 -36 -4 -57 -7 -24 -5 -39 -3 -44 5 -5
9 -1 10 14 7 12 -4 22 -2 22 3 0 5 3 8 8 8 4 -1 19 -1 34 0 20 1 26 5 22 16
-4 8 -1 15 5 15 6 0 11 -5 11 -11z m644 -25 c6 -16 -12 -18 -34 -4 -10 6 -22
5 -36 -5 -22 -14 -40 -15 -61 -2 -8 5 -13 3 -13 -3 0 -7 -5 -6 -14 2 -8 7 -13
14 -11 16 1 2 29 5 60 7 32 3 60 7 62 9 8 8 42 -6 47 -20z m415 2 c-2 -2 -22
-6 -44 -10 -29 -5 -36 -4 -25 3 13 10 79 16 69 7z m-1669 -16 c0 -5 -10 -10
-22 -9 -22 0 -22 1 -3 9 11 5 21 9 23 9 1 1 2 -3 2 -9z m450 0 c0 -5 -5 -10
-11 -10 -5 0 -7 5 -4 10 3 6 8 10 11 10 2 0 4 -4 4 -10z m-180 -8 c0 -5 -7 -9
-15 -9 -8 0 -12 4 -9 9 3 4 9 8 15 8 5 0 9 -4 9 -8z m1361 -22 c6 0 7 6 3 13
-6 10 -4 10 7 0 7 -7 28 -13 47 -13 24 0 31 3 26 13 -6 9 -5 9 7 0 9 -7 25
-11 37 -8 12 2 22 0 22 -6 0 -5 -19 -10 -42 -11 -59 -2 -85 -4 -145 -13 -36
-5 -53 -3 -53 4 0 6 9 11 20 11 11 0 20 6 21 13 0 10 2 10 6 0 7 -19 23 -16
24 5 0 10 3 12 6 5 2 -7 9 -13 14 -13z m269 4 c0 -2 -26 -3 -57 -3 -54 2 -55
2 -18 8 38 6 75 3 75 -5z m-637 -1 c-13 -2 -35 -2 -50 0 -16 2 -5 4 22 4 28 0
40 -2 28 -4z m254 -5 c2 6 17 12 31 12 25 0 25 -1 -11 -20 -28 -15 -53 -20
-104 -18 l-68 2 58 3 c40 3 60 9 64 19 5 13 8 13 15 2 7 -10 11 -10 15 0z
m-420 -4 c-3 -3 -12 -4 -19 -1 -8 3 -5 6 6 6 11 1 17 -2 13 -5z m-69 -11 c-10
-2 -26 -2 -35 0 -10 3 -2 5 17 5 19 0 27 -2 18 -5z m297 -4 c4 -6 13 -8 21 -5
8 3 14 1 14 -4 0 -6 -25 -10 -56 -10 -31 0 -53 4 -49 9 3 5 -7 12 -22 14 -16
2 -2 5 29 6 31 0 60 -4 63 -10z m-635 -9 c0 -5 -2 -10 -4 -10 -3 0 -8 5 -11
10 -3 6 -1 10 4 10 6 0 11 -4 11 -10z m473 3 c-7 -2 -19 -2 -25 0 -7 3 -2 5
12 5 14 0 19 -2 13 -5z m-558 -13 c-4 -6 9 -10 32 -11 21 -1 30 -3 20 -6 -13
-3 -17 -11 -14 -24 4 -15 0 -19 -24 -19 -16 0 -29 -5 -29 -12 0 -9 -4 -8 -10
2 -6 10 -10 11 -10 3 0 -7 -11 -12 -25 -11 -45 4 -20 23 34 26 30 2 51 7 49
13 -2 6 -7 10 -12 9 -11 -2 -26 22 -20 32 3 4 7 8 10 8 3 0 2 -4 -1 -10z m178
-6 c-4 -11 -15 -14 -40 -11 -47 7 -57 20 -11 16 20 -2 40 0 44 4 11 11 14 8 7
-9z m236 -3 c-23 -18 -122 -34 -112 -18 2 4 24 7 49 7 30 0 46 5 50 15 4 8 13
15 21 15 11 0 8 -6 -8 -19z m77 10 c-4 -5 0 -12 6 -14 7 -3 -7 -5 -32 -5 -34
1 -37 2 -15 6 26 4 28 5 10 12 -17 8 -16 9 8 9 16 1 26 -3 23 -8z m-143 -8
c-7 -2 -19 -2 -25 0 -7 3 -2 5 12 5 14 0 19 -2 13 -5z m276 3 c-2 -2 -29 -6
-59 -9 -34 -3 -47 -2 -35 3 19 8 103 14 94 6z m398 -24 c41 -5 41 -12 0 -12
-20 0 -37 2 -37 4 0 2 -3 13 -6 23 -5 14 -4 15 4 4 6 -8 23 -16 39 -19z
m-1057 1 c0 -7 -11 -13 -26 -13 -21 0 -24 3 -15 13 6 8 18 14 26 14 8 0 15 -6
15 -14z m1317 11 c-3 -3 -12 -4 -19 -1 -8 3 -5 6 6 6 11 1 17 -2 13 -5z m-635
-22 c-7 -2 -12 -8 -12 -13 0 -6 4 -8 8 -5 4 2 14 1 22 -5 12 -7 10 -9 -7 -9
-13 0 -23 -4 -23 -9 0 -4 -11 -6 -25 -3 -28 5 -33 20 -9 29 13 5 13 8 2 15 -9
6 -6 7 10 3 13 -4 22 -2 22 5 0 6 5 8 12 4 9 -6 9 -9 0 -12z m-482 -4 c0 -4
-24 -7 -52 -7 -47 1 -49 2 -18 8 48 9 70 8 70 -1z m88 5 c-16 -2 -40 -2 -55 0
-16 2 -3 4 27 4 30 0 43 -2 28 -4z m662 -9 c0 -2 -9 -4 -21 -4 -11 0 -18 4
-14 10 5 8 35 3 35 -6z m-1120 -4 c-10 -6 -11 -10 -2 -10 6 0 12 -4 12 -10 0
-5 -21 -10 -47 -9 -35 0 -42 3 -28 8 11 5 26 6 33 4 22 -9 13 7 -10 17 -20 7
-17 9 17 9 29 1 36 -2 25 -9z m68 -17 c-10 -2 -26 -2 -35 0 -10 3 -2 5 17 5
19 0 27 -2 18 -5z m-1403 -23 c3 -5 1 -10 -4 -10 -6 0 -11 5 -11 10 0 6 2 10
4 10 3 0 8 -4 11 -10z m1950 0 c-3 -5 -14 -10 -23 -10 -15 0 -15 2 -2 10 20
13 33 13 25 0z m-195 -9 c0 -5 -7 -12 -16 -15 -14 -5 -15 -4 -4 9 14 17 20 19
20 6z m-397 -8 c-7 -2 -21 -2 -30 0 -10 3 -4 5 12 5 17 0 24 -2 18 -5z m292
-13 c-3 -5 -11 -10 -16 -10 -6 0 -7 5 -4 10 3 6 11 10 16 10 6 0 7 -4 4 -10z
m61 1 c-3 -5 -15 -7 -26 -4 -28 7 -25 13 6 13 14 0 23 -4 20 -9z m-259 -17
c-3 -3 -12 -4 -19 -1 -8 3 -5 6 6 6 11 1 17 -2 13 -5z m-422 -14 c3 -5 1 -10
-4 -10 -6 0 -11 5 -11 10 0 6 2 10 4 10 3 0 8 -4 11 -10z m175 -10 c0 -5 -5
-10 -11 -10 -5 0 -7 5 -4 10 3 6 8 10 11 10 2 0 4 -4 4 -10z m80 6 c0 -8 -51
-13 -56 -5 -3 5 9 9 25 9 17 0 31 -2 31 -4z m260 -12 c0 -13 -3 -14 -15 -4 -8
6 -19 9 -25 5 -5 -3 -10 -1 -10 4 0 6 11 11 25 11 16 0 25 -6 25 -16z m1346 7
c-4 -5 6 -14 21 -19 l28 -10 -26 -1 c-25 -1 -45 20 -32 33 10 9 15 7 9 -3z
m-1729 -7 c-3 -3 -12 -4 -19 -1 -8 3 -5 6 6 6 11 1 17 -2 13 -5z m2211 -1
c-10 -2 -26 -2 -35 0 -10 3 -2 5 17 5 19 0 27 -2 18 -5z"/>
<path d="M3320 3080 c0 -5 7 -10 16 -10 8 0 12 5 9 10 -3 6 -10 10 -16 10 -5
0 -9 -4 -9 -10z"/>
<path d="M2958 2943 c6 -2 18 -2 25 0 6 3 1 5 -13 5 -14 0 -19 -2 -12 -5z"/>
<path d="M931 3228 c-1 -10 -6 -18 -11 -18 -15 0 -70 -91 -63 -104 3 -6 3 -8
-2 -4 -9 9 -20 -5 -64 -83 l-31 -56 52 9 c56 10 70 22 103 86 11 21 30 50 43
66 12 16 21 31 18 33 -8 9 -26 -8 -26 -24 0 -10 -6 -13 -16 -9 -9 3 -18 6 -20
6 -2 0 -4 6 -4 14 0 13 53 33 64 24 2 -2 13 6 25 16 l21 19 -27 14 c-15 7 -32
12 -39 9 -7 -3 -15 0 -18 7 -2 7 -5 4 -5 -5z m-56 -178 c-3 -5 -10 -10 -16
-10 -5 0 -9 5 -9 10 0 6 7 10 16 10 8 0 12 -4 9 -10z m-37 -57 c-10 -2 -26 -2
-35 0 -10 3 -2 5 17 5 19 0 27 -2 18 -5z"/>
<path d="M3448 3063 c7 -3 16 -2 19 1 4 3 -2 6 -13 5 -11 0 -14 -3 -6 -6z"/>
<path d="M39 2786 c-12 -6 -24 -17 -27 -25 -5 -14 23 -9 67 14 23 12 23 12 3
17 -11 3 -30 1 -43 -6z"/>
<path d="M194 2789 c-3 -6 -16 -8 -28 -5 -18 4 -19 4 -5 -7 15 -11 11 -13 -25
-15 -58 -3 -88 -10 -96 -23 -4 -6 -10 -10 -14 -10 -26 4 -26 -2 -1 -15 l30
-14 -27 5 c-24 5 -28 2 -28 -19 0 -48 8 -56 40 -38 15 9 36 31 45 49 18 32 29
38 68 35 11 -1 15 2 11 9 -5 8 -1 8 14 0 31 -16 128 -14 145 4 8 8 17 11 21 8
3 -4 6 -1 6 5 0 7 5 12 11 12 5 0 8 -4 5 -9 -3 -4 6 -6 19 -3 14 2 23 7 21 11
-2 3 11 6 30 5 18 -1 38 4 44 11 9 11 -1 13 -53 11 -35 -2 -70 -6 -76 -10 -7
-5 -27 -9 -44 -11 -18 -2 -24 -1 -14 1 9 3 17 10 17 15 0 13 -24 11 -39 -3
-11 -10 -13 -10 -7 0 5 8 0 12 -16 12 -18 0 -20 -2 -8 -10 9 -6 10 -10 3 -10
-6 0 -15 5 -18 10 -8 13 -22 13 -31 -1z m76 -23 c0 -11 -19 -15 -25 -6 -3 5 1
10 9 10 9 0 16 -2 16 -4z m-220 -80 c0 -2 -7 -7 -16 -10 -8 -3 -12 -2 -9 4 6
10 25 14 25 6z"/>
<path d="M4473 2783 c-7 -19 6 -31 16 -14 5 7 14 10 20 7 15 -9 122 4 116 14
-2 4 -36 7 -76 7 -52 0 -72 -3 -76 -14z"/>
<path d="M4664 2779 c-16 -10 -24 -19 -19 -19 6 0 3 -5 -5 -10 -11 -7 1 -10
40 -11 30 0 81 -2 113 -4 43 -3 57 0 57 10 0 22 -17 27 -56 16 -31 -9 -34 -8
-23 5 7 8 19 12 26 9 9 -3 13 0 11 7 -8 24 -36 19 -62 -9 -14 -15 -26 -22 -26
-15 0 8 -6 19 -13 27 -12 11 -19 10 -43 -6z m16 -13 c0 -3 -4 -8 -10 -11 -5
-3 -10 -1 -10 4 0 6 5 11 10 11 6 0 10 -2 10 -4z"/>
<path d="M4933 2794 c1 -2 16 -10 32 -18 27 -14 28 -16 8 -16 -13 0 -23 5 -23
10 0 6 -9 10 -20 10 -11 0 -20 -4 -20 -9 0 -5 -8 -12 -17 -14 -15 -4 -15 -5 2
-6 17 -1 18 -3 5 -11 -11 -7 -4 -9 25 -9 35 1 37 2 15 9 -22 7 -21 8 13 9 23
1 36 -3 32 -9 -3 -5 3 -10 14 -10 11 0 23 -5 26 -10 4 -6 11 -8 16 -5 5 3 6
-2 2 -11 -4 -11 -3 -15 5 -10 6 3 14 1 18 -5 4 -8 3 -9 -5 -5 -9 6 -11 -32
-10 -158 1 -157 2 -166 21 -166 10 0 16 -5 13 -10 -4 -6 -10 -8 -15 -5 -8 5
-20 -17 -20 -40 0 -7 15 -15 34 -17 l35 -4 1 222 c0 122 -4 233 -9 247 -9 22
-16 26 -53 25 -24 0 -46 -5 -50 -12 -6 -8 -8 -7 -8 2 0 6 -8 12 -17 12 -15 0
-16 2 -3 10 10 6 5 9 -18 8 -18 -1 -31 -2 -29 -4z m162 -44 c3 -5 -1 -10 -10
-10 -9 0 -13 5 -10 10 3 6 8 10 10 10 2 0 7 -4 10 -10z"/>
<path d="M4225 2771 c-11 -5 -23 -7 -27 -4 -5 2 -8 -1 -8 -8 0 -7 8 -9 21 -6
11 3 28 3 37 -1 13 -5 10 -8 -13 -13 -28 -7 -28 -7 8 -6 40 1 49 12 17 22 -11
4 -18 11 -15 16 7 10 7 10 -20 0z"/>
<path d="M4605 2761 c-3 -5 -1 -12 5 -16 5 -3 10 1 10 9 0 18 -6 21 -15 7z"/>
<path d="M4161 2744 c0 -11 3 -14 6 -6 3 7 2 16 -1 19 -3 4 -6 -2 -5 -13z"/>
<path d="M3928 2733 c6 -2 18 -2 25 0 6 3 1 5 -13 5 -14 0 -19 -2 -12 -5z"/>
<path d="M28 2629 l-27 -10 -1 -245 c0 -192 2 -244 12 -244 11 0 11 -2 0 -8
-10 -7 -12 -92 -10 -410 3 -370 4 -403 21 -419 16 -16 48 -18 337 -23 l319 -5
68 -136 c103 -203 288 -467 320 -455 8 4 11 1 7 -5 -13 -22 247 -260 290 -265
11 -1 30 -3 41 -4 17 -2 16 -3 -5 -9 -24 -7 -22 -9 35 -47 128 -85 173 -106
213 -100 20 3 52 5 70 6 17 0 32 4 32 9 0 13 -57 34 -70 26 -6 -3 -9 -1 -8 5
2 6 -24 25 -57 43 -33 18 -61 35 -63 40 -2 4 -12 7 -23 7 -10 0 -19 4 -19 9 0
4 -28 28 -62 52 -76 53 -250 202 -295 252 -72 80 -170 207 -222 287 -54 84
-156 278 -149 285 3 3 477 8 555 6 25 -1 37 -10 67 -50 76 -107 186 -223 203
-217 8 3 13 -2 13 -13 0 -45 338 -261 407 -261 14 0 22 -4 19 -9 -5 -8 168
-65 234 -76 152 -26 432 -27 550 -2 134 29 302 88 295 105 -4 11 1 13 19 8 30
-7 198 91 306 180 98 81 250 243 250 269 0 5 13 22 28 37 l28 28 288 0 c158 1
290 -1 293 -3 2 -3 -7 -28 -21 -56 -31 -60 -31 -60 -8 -59 9 0 29 -3 44 -7 27
-7 29 -4 57 58 l30 66 320 3 c292 3 322 5 338 21 16 16 18 41 20 212 l3 195
-35 0 c-32 0 -35 -2 -35 -29 0 -20 6 -31 18 -34 16 -4 16 -5 0 -6 -16 -1 -18
-14 -18 -126 0 -177 23 -165 -304 -165 -144 0 -1243 -1 -2443 -3 l-2182 -2
-25 28 -26 27 -1 568 c0 312 -1 593 0 625 0 31 -3 57 -7 56 -4 0 -19 -5 -34
-10z m3793 -1332 c-10 -9 -11 -8 -5 6 3 10 9 15 12 12 3 -3 0 -11 -7 -18z
m644 3 c3 -5 1 -10 -4 -10 -6 0 -11 5 -11 10 0 6 2 10 4 10 3 0 8 -4 11 -10z
m-1890 -19 c3 -5 2 -12 -3 -15 -5 -3 -9 1 -9 9 0 17 3 19 12 6z m905 -35 c0
-8 -4 -17 -9 -21 -6 -3 -9 4 -8 15 1 23 17 28 17 6z m-483 -12 c-3 -3 -12 -4
-19 -1 -8 3 -5 6 6 6 11 1 17 -2 13 -5z m668 -4 c-3 -5 -10 -10 -16 -10 -5 0
-9 5 -9 10 0 6 7 10 16 10 8 0 12 -4 9 -10z m-475 -29 c0 -4 -11 -6 -25 -3
-14 2 -25 6 -25 8 0 2 11 4 25 4 14 0 25 -4 25 -9z m61 -9 c-18 -2 -37 0 -42
5 -5 5 11 6 34 3 41 -4 41 -5 8 -8z m84 -12 c-27 -12 -35 -12 -35 0 0 6 12 10
28 9 24 0 25 -1 7 -9z m58 -7 c-7 -2 -19 -2 -25 0 -7 3 -2 5 12 5 14 0 19 -2
13 -5z m55 1 c12 -4 22 -10 22 -15 0 -13 -23 -10 -44 6 -21 16 -15 18 22 9z
m-258 -79 c4 3 13 -2 19 -9 9 -11 9 -16 0 -22 -7 -4 -9 -3 -5 4 3 6 2 13 -4
17 -5 3 -10 -2 -11 -12 0 -16 -1 -16 -9 2 -5 11 -9 25 -9 30 1 6 3 4 6 -3 2
-6 8 -10 13 -7z m-1235 -4 c3 -5 1 -12 -5 -16 -5 -3 -10 1 -10 9 0 18 6 21 15
7z m845 0 c0 -5 -7 -11 -15 -15 -15 -5 -20 5 -8 17 9 10 23 9 23 -2z m234 -12
c-8 -14 -24 -10 -24 6 0 9 6 12 15 9 8 -4 12 -10 9 -15z m-704 7 c0 -3 -4 -8
-10 -11 -5 -3 -10 -1 -10 4 0 6 5 11 10 11 6 0 10 -2 10 -4z m215 -6 c3 -5 -1
-10 -10 -10 -9 0 -13 5 -10 10 3 6 8 10 10 10 2 0 7 -4 10 -10z m-730 -10 c3
-5 -2 -10 -12 -10 -12 0 -14 -3 -6 -8 16 -10 2 -28 -22 -28 -24 1 -41 36 -23
48 18 11 56 10 63 -2z m689 -18 c2 -4 -5 -9 -17 -9 -17 -2 -19 0 -7 7 18 12
18 12 24 2z m36 -2 c0 -5 -5 -10 -11 -10 -5 0 -7 5 -4 10 3 6 8 10 11 10 2 0
4 -4 4 -10z m139 -6 c-6 -7 -17 -10 -25 -7 -19 7 -8 22 16 20 14 -1 16 -5 9
-13z m86 2 c-11 -8 -24 -12 -28 -9 -11 7 12 23 32 23 11 0 9 -4 -4 -14z m50
-4 c-3 -3 -11 0 -18 7 -9 10 -8 11 6 5 10 -3 15 -9 12 -12z m525 12 c0 -8 -19
-13 -24 -6 -3 5 1 9 9 9 8 0 15 -2 15 -3z m-1470 -9 c0 -2 -9 -9 -20 -15 -16
-9 -20 -8 -20 5 0 8 9 15 20 15 11 0 20 -2 20 -5z m160 -5 c0 -5 -9 -10 -20
-10 -11 0 -20 5 -20 10 0 6 9 10 20 10 11 0 20 -4 20 -10z m80 0 c0 -5 -2 -10
-4 -10 -3 0 -8 5 -11 10 -3 6 -1 10 4 10 6 0 11 -4 11 -10z m-362 -43 c9 -3
-1 -5 -23 -5 -22 0 -32 2 -22 5 9 2 18 12 18 21 1 16 2 16 6 0 2 -9 12 -19 21
-21z m601 7 c2 -2 -14 -4 -37 -4 -23 0 -42 4 -42 9 0 9 69 4 79 -5z m188 -9
c-15 -16 -22 -11 -13 10 3 9 10 13 16 10 6 -4 5 -11 -3 -20z m177 13 c-2 -4 6
-9 18 -11 20 -4 20 -4 -4 -6 -15 0 -30 4 -33 10 -4 6 -14 8 -22 5 -8 -3 -12
-2 -9 3 3 5 17 8 30 7 13 0 22 -4 20 -8z m84 -13 c-3 -3 -9 2 -12 12 -6 14 -5
15 5 6 7 -7 10 -15 7 -18z m692 15 c0 -5 -8 -10 -17 -10 -15 0 -16 2 -3 10 19
12 20 12 20 0z m-1453 -6 c-3 -3 -12 -4 -19 -1 -8 3 -5 6 6 6 11 1 17 -2 13
-5z m430 -4 c-16 -5 -47 -5 -70 0 -38 7 -36 8 28 8 54 0 63 -2 42 -8z m34 -13
c-10 -9 -11 -8 -5 6 3 10 9 15 12 12 3 -3 0 -11 -7 -18z m499 9 c0 -2 -7 -7
-16 -10 -8 -3 -12 -2 -9 4 6 10 25 14 25 6z m-993 -13 c-4 -3 1 -12 11 -19 15
-12 13 -13 -18 -7 -39 7 -52 13 -27 13 10 0 17 5 17 10 0 6 5 10 12 10 6 0 8
-3 5 -7z m590 1 c-3 -3 -12 -4 -19 -1 -8 3 -5 6 6 6 11 1 17 -2 13 -5z m180
-18 c4 -3 -1 -6 -10 -6 -9 0 -17 -6 -17 -12 0 -8 -5 -6 -11 4 -5 9 -16 15 -23
12 -8 -3 -16 -1 -19 3 -6 10 70 9 80 -1z m263 4 c0 -5 -8 -10 -17 -10 -15 0
-16 2 -3 10 19 12 20 12 20 0z m-590 -10 c0 -5 -2 -10 -4 -10 -3 0 -8 5 -11
10 -3 6 -1 10 4 10 6 0 11 -4 11 -10z m40 0 c0 -5 -7 -10 -16 -10 -8 0 -12 5
-9 10 3 6 10 10 16 10 5 0 9 -4 9 -10z m343 3 c-7 -2 -21 -2 -30 0 -10 3 -4 5
12 5 17 0 24 -2 18 -5z m77 -5 c0 -11 -12 -10 -30 2 -12 7 -10 9 8 7 12 0 22
-5 22 -9z m46 -6 c1 -7 0 -8 -3 -2 -2 5 -9 8 -13 5 -5 -3 -12 0 -15 6 -5 7 -1
10 10 7 10 -1 20 -9 21 -16z m271 12 c-3 -3 -12 -4 -19 -1 -8 3 -5 6 6 6 11 1
17 -2 13 -5z m-1134 -11 c-7 -2 -19 -2 -25 0 -7 3 -2 5 12 5 14 0 19 -2 13 -5z
m-83 -53 c0 -5 -8 -10 -17 -10 -15 0 -16 2 -3 10 19 12 20 12 20 0z m270 -20
c0 -5 -4 -10 -10 -10 -5 0 -10 5 -10 10 0 6 5 10 10 10 6 0 10 -4 10 -10z m97
-16 c-3 -3 -12 -4 -19 -1 -8 3 -5 6 6 6 11 1 17 -2 13 -5z m56 -1 c-7 -2 -19
-2 -25 0 -7 3 -2 5 12 5 14 0 19 -2 13 -5z m133 -22 c-4 -5 -1 -11 6 -13 7 -3
5 -7 -6 -11 -10 -4 -15 -3 -11 3 3 6 1 10 -5 10 -6 0 -8 5 -5 10 3 6 11 10 16
10 6 0 8 -4 5 -9z m171 -7 c-3 -3 -12 -4 -19 -1 -8 3 -5 6 6 6 11 1 17 -2 13
-5z m486 -41 c-7 -2 -21 -2 -30 0 -10 3 -4 5 12 5 17 0 24 -2 18 -5z m-123
-43 c0 -5 -5 -10 -11 -10 -5 0 -7 5 -4 10 3 6 8 10 11 10 2 0 4 -4 4 -10z
m-93 -6 c-3 -3 -12 -4 -19 -1 -8 3 -5 6 6 6 11 1 17 -2 13 -5z m-627 -8 c0 -2
-7 -7 -16 -10 -8 -3 -12 -2 -9 4 6 10 25 14 25 6z m157 -2 c-3 -3 -12 -4 -19
-1 -8 3 -5 6 6 6 11 1 17 -2 13 -5z"/>
<path d="M287 2463 c-14 -13 -6 -33 13 -33 19 0 20 -7 20 -130 0 -125 -1 -130
-21 -130 -14 0 -19 -5 -17 -17 5 -27 112 -31 140 -6 26 23 78 126 78 153 0 26
-45 117 -73 148 -17 18 -31 22 -77 22 -31 0 -60 -3 -63 -7z m141 -101 l33 -62
-33 -62 c-50 -96 -62 -86 -66 51 -1 63 0 121 3 129 9 25 29 7 63 -56z"/>
<path d="M660 2440 c0 -28 3 -31 28 -28 21 2 27 8 27 28 0 20 -6 26 -27 28
-25 3 -28 0 -28 -28z"/>
<path d="M1300 2440 c0 -28 3 -31 28 -28 21 2 27 8 27 28 0 20 -6 26 -27 28
-25 3 -28 0 -28 -28z"/>
<path d="M2812 2303 c3 -151 5 -168 21 -171 15 -3 17 8 17 132 0 76 4 136 9
136 5 0 18 -18 28 -40 10 -22 23 -40 30 -40 6 0 20 17 30 37 36 70 43 55 43
-92 0 -125 2 -136 18 -133 15 3 17 20 20 171 l2 167 -29 0 c-23 0 -34 -8 -51
-35 -12 -19 -26 -35 -31 -35 -5 0 -19 16 -31 35 -17 26 -30 35 -51 35 l-27 0
2 -167z"/>
<path d="M3200 2440 c0 -28 3 -31 28 -28 21 2 27 8 27 28 0 20 -6 26 -27 28
-25 3 -28 0 -28 -28z"/>
<path d="M4150 2440 c0 -28 3 -31 28 -28 21 2 27 8 27 28 0 20 -6 26 -27 28
-25 3 -28 0 -28 -28z"/>
<path d="M2210 2431 c0 -17 6 -21 30 -21 l30 0 0 -120 0 -120 -30 0 c-24 0
-30 -4 -30 -20 0 -19 5 -21 78 -18 60 2 77 6 77 18 0 9 -11 16 -27 18 l-27 3
-3 137 -3 137 -47 3 c-43 3 -48 1 -48 -17z"/>
<path d="M1590 2406 c0 -29 -4 -36 -20 -36 -13 0 -20 -7 -20 -20 0 -13 7 -20
20 -20 18 0 20 -7 20 -84 0 -76 2 -86 22 -100 48 -34 138 -8 138 38 0 26 -22
30 -40 7 -12 -16 -25 -22 -46 -19 -29 3 -29 3 -32 80 l-3 77 48 3 c35 2 48 7
48 18 0 11 -13 16 -47 18 -45 3 -47 5 -50 35 -2 21 -9 33 -20 35 -15 3 -18 -4
-18 -32z"/>
<path d="M620 2351 c0 -17 6 -21 30 -21 l30 0 0 -80 0 -80 -30 0 c-24 0 -30
-4 -30 -20 0 -19 5 -21 78 -18 60 2 77 6 77 18 0 9 -11 16 -27 18 l-27 3 -3
97 -3 97 -47 3 c-43 3 -48 1 -48 -17z"/>
<path d="M946 2345 c-23 -21 -26 -32 -26 -89 0 -58 3 -67 26 -85 29 -23 83
-28 115 -11 17 10 19 7 19 -24 0 -44 -20 -56 -90 -56 -44 0 -51 -3 -48 -17 3
-14 15 -19 64 -21 53 -2 64 0 87 22 27 25 27 26 27 160 0 135 -9 169 -34 134
-10 -14 -14 -14 -31 -2 -30 22 -79 17 -109 -11z m108 -36 c32 -25 34 -64 4
-96 -23 -25 -67 -30 -86 -11 -16 16 -16 100 0 116 18 18 52 14 82 -9z"/>
<path d="M1260 2351 c0 -17 6 -21 30 -21 l30 0 0 -80 0 -80 -30 0 c-24 0 -30
-4 -30 -20 0 -19 5 -21 78 -18 60 2 77 6 77 18 0 9 -11 16 -27 18 l-27 3 -3
97 -3 97 -47 3 c-43 3 -48 1 -48 -17z"/>
<path d="M1915 2360 c-12 -19 6 -30 49 -30 42 0 66 -13 66 -37 0 -9 -17 -13
-58 -13 -78 0 -102 -17 -102 -75 0 -34 5 -47 22 -59 25 -18 94 -21 118 -6 9 5
19 5 27 -1 24 -21 33 3 33 90 0 74 -3 93 -21 115 -18 22 -28 26 -74 26 -30 0
-57 -4 -60 -10z m113 -146 c6 -41 -108 -62 -116 -21 -8 39 5 48 60 45 45 -3
53 -6 56 -24z"/>
<path d="M3167 2364 c-17 -17 -6 -34 23 -34 l30 0 0 -80 0 -80 -31 0 c-24 0
-30 -4 -27 -17 3 -15 15 -18 78 -18 60 0 75 3 75 15 0 9 -11 16 -27 18 l-27 3
-3 97 -3 97 -40 3 c-23 2 -44 0 -48 -4z"/>
<path d="M3470 2350 c-40 -40 -21 -68 73 -110 51 -23 67 -35 65 -48 -2 -13
-16 -18 -56 -20 -30 -2 -60 2 -67 8 -16 14 -35 5 -35 -15 0 -23 34 -35 97 -35
67 0 103 19 103 55 0 43 -12 55 -87 90 -42 20 -72 39 -68 45 8 13 91 13 117
-1 16 -9 23 -8 29 2 28 45 -129 71 -171 29z"/>
<path d="M3790 2350 c-40 -40 -21 -68 73 -110 51 -23 67 -35 65 -48 -2 -13
-16 -18 -56 -20 -30 -2 -60 2 -67 8 -16 14 -35 5 -35 -15 0 -23 34 -35 97 -35
67 0 103 19 103 55 0 43 -12 55 -87 90 -42 20 -72 39 -68 45 8 13 91 13 117
-1 16 -9 23 -8 29 2 28 45 -129 71 -171 29z"/>
<path d="M4117 2364 c-17 -17 -6 -34 23 -34 l30 0 0 -80 0 -80 -31 0 c-24 0
-30 -4 -27 -17 3 -15 15 -18 78 -18 60 0 75 3 75 15 0 9 -11 16 -27 18 l-27 3
-3 97 -3 97 -40 3 c-23 2 -44 0 -48 -4z"/>
<path d="M4450 2353 c-37 -25 -40 -32 -40 -105 0 -62 2 -68 31 -92 21 -18 42
-26 69 -26 27 0 48 8 69 26 29 24 31 30 31 92 0 37 -4 72 -8 78 -16 24 -59 44
-92 44 -20 0 -47 -8 -60 -17z m104 -36 c14 -10 17 -25 14 -72 -3 -55 -5 -60
-30 -69 -18 -6 -38 -6 -55 0 -26 9 -28 14 -31 69 -3 66 10 85 58 85 14 0 34
-6 44 -13z"/>
<path d="M4724 2357 c-2 -7 -3 -60 -2 -118 2 -84 6 -104 18 -104 12 0 16 18
20 78 5 75 6 78 38 97 69 42 80 29 84 -100 2 -59 6 -75 18 -75 12 0 15 18 15
103 0 91 -2 105 -19 118 -26 19 -76 18 -105 -2 -22 -16 -24 -16 -33 0 -11 19
-27 21 -34 3z"/>
<path d="M5050 2240 c0 -22 5 -40 10 -40 6 0 10 4 10 8 0 4 9 8 20 9 11 1 18
-2 15 -7 -3 -5 -1 -11 5 -15 6 -4 10 10 10 35 0 25 -4 39 -10 35 -6 -4 -8 -11
-5 -16 4 -5 -4 -9 -17 -8 -13 0 -17 3 -11 6 10 3 10 8 -1 19 -22 21 -26 17
-26 -26z"/>
<path d="M5053 2162 c0 -17 4 -22 15 -17 13 5 13 3 -1 -13 -9 -10 -17 -28 -17
-40 0 -18 6 -22 34 -22 l33 0 0 50 c-1 34 -5 50 -14 50 -7 0 -13 4 -13 9 0 6
-8 9 -19 8 -12 -1 -18 -9 -18 -25z"/>
<path d="M5052 1993 c3 -66 4 -68 28 -65 20 3 23 1 13 -9 -17 -18 -16 -29 3
-29 8 0 13 -4 9 -9 -3 -6 -14 -8 -25 -6 -24 5 -38 -14 -19 -26 10 -6 11 -9 2
-9 -7 0 -13 -9 -13 -20 0 -14 7 -20 21 -20 12 0 17 -4 14 -11 -4 -6 -13 -8
-20 -5 -19 7 -16 -42 4 -49 14 -6 13 -8 -4 -15 -16 -7 -13 -9 16 -9 l37 -1 1
175 1 175 -35 0 -36 0 3 -67z"/>
<path d="M2022 1773 c3 -151 5 -168 21 -171 15 -3 17 5 17 62 l0 66 69 0 c63
0 71 2 90 26 16 20 21 41 21 85 0 86 -18 99 -132 99 l-88 0 2 -167z m166 115
c17 -17 15 -93 -2 -107 -8 -7 -37 -11 -68 -9 l-53 3 -3 49 c-2 27 -1 55 2 62
7 18 107 19 124 2z"/>
<path d="M3360 1910 c0 -28 3 -31 28 -28 21 2 27 8 27 28 0 20 -6 26 -27 28
-25 3 -28 0 -28 -28z"/>
<path d="M1492 1908 c-13 -6 -26 -24 -29 -39 -3 -15 -13 -29 -24 -32 -25 -7
-25 -37 1 -37 18 0 20 -8 22 -97 2 -79 6 -98 18 -98 12 0 16 19 18 98 l3 97
29 0 c23 0 30 4 30 20 0 16 -7 20 -31 20 -24 0 -30 4 -27 18 2 13 15 18 51 20
39 3 48 6 45 20 -4 21 -71 27 -106 10z"/>
<path d="M2355 1908 c-3 -8 -4 -79 -3 -158 3 -121 5 -145 18 -145 12 0 16 18
20 78 5 75 6 78 38 97 69 42 80 29 84 -100 2 -59 6 -75 18 -75 12 0 15 18 15
103 0 91 -2 105 -19 118 -26 18 -77 18 -102 -1 -29 -22 -33 -19 -36 37 -3 50
-22 76 -33 46z"/>
<path d="M1125 1828 c-37 -20 -45 -40 -45 -110 0 -62 3 -72 26 -93 21 -19 38
-25 74 -25 36 0 53 6 74 25 23 22 26 31 26 95 0 64 -3 73 -26 95 -29 27 -92
34 -129 13z m99 -41 c14 -10 17 -25 14 -72 -3 -55 -5 -60 -30 -69 -18 -6 -38
-6 -55 0 -26 9 -28 14 -31 69 -3 66 10 85 58 85 14 0 34 -6 44 -13z"/>
<path d="M2667 1834 c-16 -17 -4 -69 33 -148 35 -74 39 -88 29 -110 -9 -19
-20 -26 -41 -26 -23 0 -29 -4 -26 -17 2 -14 13 -18 42 -18 l39 0 59 130 c39
86 58 140 56 160 -4 37 -32 41 -36 5 -4 -32 -53 -150 -62 -150 -9 0 -58 118
-62 149 -3 25 -19 37 -31 25z"/>
<path d="M2996 1821 c-34 -37 -17 -63 67 -106 93 -48 98 -68 19 -73 -30 -2
-60 2 -67 8 -16 14 -35 5 -35 -15 0 -23 34 -35 97 -35 67 0 103 19 103 55 0
44 -13 57 -87 91 -42 19 -72 38 -68 44 9 14 91 13 115 -2 16 -10 22 -10 32 0
11 11 9 17 -11 33 -33 27 -140 27 -165 0z"/>
<path d="M3320 1821 c0 -17 6 -21 30 -21 l30 0 0 -80 0 -80 -30 0 c-24 0 -30
-4 -30 -20 0 -19 5 -21 78 -18 60 2 77 6 77 18 0 9 -11 16 -27 18 l-27 3 -3
97 -3 97 -47 3 c-43 3 -48 1 -48 -17z"/>
<path d="M3648 1810 c-36 -30 -38 -35 -38 -90 0 -55 2 -60 38 -90 34 -28 43
-30 97 -28 48 2 60 7 63 21 3 14 -5 17 -51 17 -73 0 -107 26 -107 80 0 54 34
80 107 80 46 0 54 3 51 18 -3 13 -15 18 -63 20 -54 2 -63 0 -97 -28z"/>
<path d="M3946 1821 c-34 -37 -17 -63 67 -106 93 -48 98 -68 19 -73 -30 -2
-60 2 -67 8 -16 14 -35 5 -35 -15 0 -23 34 -35 97 -35 67 0 103 19 103 55 0
44 -13 57 -87 91 -42 19 -72 38 -68 44 9 14 91 13 115 -2 16 -10 22 -10 32 0
11 11 9 17 -11 33 -33 27 -140 27 -165 0z"/>
<path d="M4261 1100 c-12 -22 -19 -40 -15 -40 4 0 -1 -7 -12 -16 -12 -10 -14
-14 -4 -11 14 3 40 -14 40 -27 0 -3 -15 -6 -34 -6 -28 0 -38 -6 -61 -42 -60
-92 -164 -217 -259 -311 -82 -82 -95 -98 -73 -95 14 1 26 -1 26 -7 0 -5 -7 -9
-15 -7 -8 2 -14 -4 -14 -13 0 -8 -5 -15 -11 -15 -5 0 -7 -5 -4 -11 4 -6 -3 -5
-14 3 -17 10 -18 14 -6 16 18 4 21 22 3 22 -6 0 -18 -7 -27 -15 -16 -16 -144
-110 -178 -132 -14 -9 -3 -11 60 -11 76 1 80 2 133 42 46 34 52 41 37 47 -14
6 -11 8 12 8 25 1 53 24 164 138 134 137 135 138 105 144 l-29 7 32 1 c25 1
38 10 63 44 l31 42 -23 7 c-22 6 -22 6 3 7 30 1 64 34 53 52 -4 7 -3 10 4 6 9
-7 90 121 111 176 8 21 7 22 -26 19 -20 -3 -38 1 -42 7 -4 7 -16 -5 -30 -29z
m-27 -122 c-7 -11 -34 -10 -34 1 0 6 9 9 19 8 11 0 17 -5 15 -9z m-327 -440
c-3 -8 -6 -5 -6 6 -1 11 2 17 5 13 3 -3 4 -12 1 -19z"/>
<path d="M3552 363 c-10 -4 -10 -8 0 -21 11 -15 11 -15 -3 -5 -12 10 -36 2
-135 -47 -424 -209 -937 -256 -1384 -126 -46 13 -88 22 -91 20 -4 -2 -9 1 -11
8 -3 7 -23 11 -49 10 -30 0 -38 2 -24 7 17 7 15 9 -16 20 -39 13 -129 12 -129
-1 0 -4 -3 -7 -7 -7 -5 1 -17 1 -27 0 -24 -1 -10 -18 19 -23 11 -1 23 -7 27
-13 5 -6 8 -5 8 3 0 6 5 12 11 12 6 0 9 -6 6 -14 -6 -15 68 -50 84 -40 5 3 9
1 9 -5 0 -20 239 -87 415 -117 139 -24 471 -24 610 0 224 38 408 97 599 193
134 67 216 118 216 136 0 13 -101 21 -128 10z"/>
</g>
</svg>
