<?xml version="1.0" standalone="no"?>
<!DOCTYPE svg PUBLIC "-//W3C//DTD SVG 20010904//EN"
 "http://www.w3.org/TR/2001/REC-SVG-20010904/DTD/svg10.dtd">
<svg version="1.0" xmlns="http://www.w3.org/2000/svg"
 width="512.000000pt" height="406.000000pt" viewBox="0 0 512.000000 406.000000"
 preserveAspectRatio="xMidYMid meet">

<g transform="translate(0.000000,406.000000) scale(0.100000,-0.100000)"
fill="#000000" stroke="none">
<path d="M2496 3862 c-3 -5 -3 -62 1 -126 l6 -116 54 0 c40 0 53 4 53 15 0 11
-12 15 -45 15 l-45 0 0 104 c0 94 -9 132 -24 108z"/>
<path d="M2371 3752 c-39 -102 -52 -158 -32 -137 11 12 91 216 91 233 0 36
-22 0 -59 -96z"/>
<path d="M2707 3854 c-3 -4 3 -24 13 -45 26 -50 25 -76 -5 -134 -27 -50 -27
-67 0 -45 48 40 60 138 24 196 -22 37 -23 37 -32 28z"/>
<path d="M2177 3808 c-10 -38 -20 -228 -13 -228 3 0 11 11 16 25 11 30 46 34
66 8 7 -10 16 -15 19 -11 8 8 -66 228 -76 228 -4 0 -9 -10 -12 -22z m43 -130
c0 -10 -7 -18 -15 -18 -11 0 -15 11 -15 43 1 41 1 42 15 17 8 -14 14 -33 15
-42z"/>
<path d="M3026 3684 c-18 -109 -16 -146 4 -114 6 8 10 25 10 37 0 20 3 21 36
12 46 -13 60 -2 73 62 16 73 2 93 -80 112 l-25 6 -18 -115z m79 66 c25 -9 26
-13 20 -53 -9 -54 -16 -60 -49 -47 -26 10 -27 13 -21 53 11 62 10 62 50 47z"/>
<path d="M1992 3747 c-15 -41 -15 -87 -1 -124 11 -30 47 -73 61 -73 16 0 8 27
-16 49 -31 29 -40 88 -21 135 18 43 18 46 2 46 -7 0 -18 -15 -25 -33z"/>
<path d="M3200 3633 c-27 -124 -27 -125 -13 -130 6 -2 14 13 18 37 7 39 9 41
34 35 38 -9 41 -16 29 -63 -10 -40 -6 -63 8 -49 6 6 64 204 64 220 0 4 -6 7
-13 7 -7 0 -19 -22 -26 -50 -7 -27 -14 -50 -16 -50 -2 0 -16 5 -30 12 -27 12
-28 21 -12 112 1 5 -3 10 -10 13 -7 3 -19 -31 -33 -94z"/>
<path d="M1655 3635 c-22 -14 -44 -26 -50 -28 -10 -4 49 -203 65 -221 8 -8
110 41 110 54 0 18 -16 17 -53 -1 -32 -17 -41 -18 -48 -7 -14 21 -10 48 6 54
8 4 15 15 15 25 0 17 -3 18 -21 9 -11 -7 -22 -10 -23 -8 -6 6 -26 71 -24 73 2
1 22 14 46 29 41 26 55 46 30 46 -7 0 -31 -12 -53 -25z"/>
<path d="M3393 3634 c-3 -9 -2 -39 3 -68 7 -36 6 -63 -2 -91 -26 -85 -6 -108
21 -25 11 34 28 59 50 76 33 25 53 59 41 71 -3 3 -19 -9 -37 -26 -38 -39 -51
-31 -51 33 0 45 -13 61 -25 30z"/>
<path d="M3570 3540 c-13 -8 -10 -86 7 -194 l6 -40 -31 23 c-18 12 -31 27 -29
33 1 6 -4 13 -10 15 -8 3 -13 -5 -13 -21 0 -17 11 -33 33 -50 65 -50 78 -29
61 102 -7 53 -11 98 -9 100 9 9 55 -33 55 -50 0 -11 5 -18 13 -16 23 8 19 38
-10 64 -38 35 -57 44 -73 34z"/>
<path d="M1337 3415 c-24 -23 -27 -33 -27 -87 0 -58 2 -63 40 -100 48 -44 59
-46 96 -15 36 31 24 56 -13 27 l-25 -20 -30 21 c-33 24 -34 26 -42 86 -6 38
-3 45 24 69 16 15 30 31 30 36 0 16 -26 8 -53 -17z"/>
<path d="M3724 3429 c-4 -7 2 -20 16 -31 l22 -18 -35 -75 c-35 -72 -49 -87
-62 -65 -9 14 -25 12 -25 -3 0 -12 82 -87 94 -87 11 0 6 24 -9 40 -13 14 -10
24 22 93 35 73 37 76 55 60 21 -19 37 -9 22 14 -6 9 -29 32 -51 50 -29 24 -43
31 -49 22z"/>
<path d="M1523 3379 c-8 -8 -9 -18 -2 -30 12 -24 41 -13 37 14 -4 25 -19 32
-35 16z"/>
<path d="M3872 3237 c-55 -38 -71 -148 -28 -201 34 -42 54 -24 22 19 -22 29
-25 40 -20 80 11 73 75 111 108 63 12 -17 19 -19 27 -11 9 9 4 19 -19 42 -36
36 -46 37 -90 8z"/>
<path d="M1040 3114 c-19 -30 -22 -45 -17 -91 6 -55 45 -129 75 -140 16 -7 49
23 69 60 13 26 12 32 -4 63 -23 44 -30 46 -51 12 -18 -30 -11 -48 12 -29 12
10 16 8 21 -10 5 -15 0 -28 -17 -46 l-25 -24 -26 40 c-31 46 -36 123 -12 155
8 11 15 26 15 33 0 24 -18 14 -40 -23z"/>
<path d="M1230 3125 c-13 -15 -7 -45 8 -45 17 0 33 27 26 44 -8 20 -18 20 -34
1z"/>
<path d="M4016 3114 c-3 -9 -6 -46 -6 -84 0 -37 -3 -81 -6 -99 l-6 -31 -22 27
c-11 15 -19 35 -18 45 2 11 -3 18 -12 18 -24 0 -19 -39 10 -82 27 -39 57 -49
67 -24 3 8 7 50 8 93 1 43 5 86 8 96 6 17 8 17 26 -2 10 -12 19 -31 20 -43 2
-34 25 -34 25 -1 0 31 -52 103 -75 103 -7 0 -16 -7 -19 -16z"/>
<path d="M1208 1194 c-49 -24 -88 -47 -88 -50 0 -13 42 -74 51 -74 14 0 11 24
-6 46 -20 27 -19 30 17 45 24 10 33 10 36 1 2 -7 10 -12 19 -12 10 0 12 6 8
19 -5 15 1 24 23 35 29 15 31 15 54 -16 14 -17 27 -27 31 -22 7 13 -31 74 -46
73 -7 0 -51 -20 -99 -45z"/>
<path d="M3907 1183 c-4 -3 -7 -17 -7 -29 0 -25 61 -74 92 -74 16 0 58 44 58
61 0 19 -27 8 -40 -16 -14 -25 -30 -33 -30 -15 0 6 6 19 13 31 10 17 9 22 -7
35 -20 14 -68 19 -79 7z m63 -21 c0 -5 -6 -16 -13 -26 -12 -16 -14 -16 -26 -2
-7 8 -10 20 -6 26 7 12 45 14 45 2z"/>
<path d="M1253 1059 c-29 -17 -53 -35 -53 -40 0 -13 5 -12 42 11 35 21 73 26
83 11 3 -5 -15 -24 -41 -43 -58 -42 -40 -50 21 -8 49 33 60 68 25 77 -11 3
-17 9 -14 14 9 16 -10 9 -63 -22z"/>
<path d="M3837 1073 c-4 -3 -7 -15 -7 -25 0 -12 -4 -16 -11 -12 -7 4 -10 2 -8
-4 6 -17 101 -82 111 -76 5 3 -9 19 -32 35 -68 49 -48 86 23 45 46 -27 57 -31
57 -18 0 10 -94 62 -112 62 -8 0 -18 -3 -21 -7z"/>
<path d="M1352 960 c-38 -23 -47 -56 -20 -74 20 -14 20 -14 -2 -26 -18 -9 -25
-8 -41 6 -22 20 -38 11 -23 -14 17 -27 52 -26 87 2 89 70 90 71 79 93 -16 29
-45 34 -80 13z m46 -36 c-4 -24 -58 -33 -58 -10 0 19 41 49 53 37 5 -5 7 -17
5 -27z"/>
<path d="M3752 968 c-14 -14 -16 -38 -3 -38 6 0 13 5 16 10 3 6 13 10 22 10
14 0 14 -2 -1 -19 -22 -25 -14 -53 20 -72 25 -13 28 -12 50 16 12 16 20 33 17
38 -6 10 -94 67 -103 67 -3 0 -11 -5 -18 -12z m88 -62 c0 -19 -17 -29 -37 -22
-12 5 -13 9 -3 21 16 19 40 19 40 1z"/>
<path d="M3590 883 c0 -14 125 -133 140 -133 8 0 1 13 -18 33 -28 29 -44 77
-26 77 4 0 26 -16 50 -35 23 -19 45 -32 48 -27 6 10 -82 82 -101 82 -8 0 -17
-9 -20 -21 -6 -20 -6 -20 -27 -1 -28 25 -46 35 -46 25z"/>
<path d="M3550 841 c0 -8 7 -22 15 -31 14 -15 14 -18 0 -30 -22 -18 -19 -35
16 -75 34 -39 66 -45 90 -17 15 17 11 24 -52 93 -38 41 -68 68 -69 60z m78
-93 c17 -17 15 -58 -2 -58 -13 0 -56 49 -56 64 0 11 46 6 58 -6z"/>
<path d="M1440 815 c-9 -11 -10 -19 -3 -26 7 -7 14 -5 23 6 9 11 10 19 3 26
-7 7 -14 5 -23 -6z"/>
<path d="M1653 710 c-60 -73 -71 -90 -56 -90 4 1 25 23 47 51 21 28 40 48 42
46 2 -2 -7 -32 -21 -67 -14 -37 -21 -68 -16 -73 5 -5 35 28 71 78 34 47 60 88
57 91 -3 3 -24 -20 -46 -50 -40 -53 -59 -71 -48 -43 39 96 45 117 37 122 -5 3
-35 -26 -67 -65z"/>
<path d="M3473 701 c-3 -12 -11 -17 -19 -14 -8 3 -14 2 -14 -2 0 -13 71 -105
81 -105 11 0 -6 36 -21 45 -6 3 -10 20 -10 36 0 26 3 29 20 24 24 -8 25 -2 4
19 -21 21 -35 20 -41 -3z"/>
<path d="M1775 640 c-3 -6 1 -13 9 -16 9 -3 16 -12 16 -20 0 -17 -5 -17 -30
-2 -15 10 -23 9 -39 -6 -30 -27 -27 -64 5 -76 14 -6 27 -10 29 -10 7 0 55 93
55 106 0 18 -37 37 -45 24z m-9 -88 c-19 -19 -42 -3 -32 23 5 13 10 14 27 4
20 -10 20 -12 5 -27z"/>
<path d="M3362 637 c-16 -19 -4 -28 27 -21 l26 5 -22 -19 c-27 -24 -29 -40 -7
-70 19 -27 34 -28 64 -2 l22 19 -34 48 c-37 51 -58 62 -76 40z m71 -63 c9 -10
-4 -34 -18 -34 -17 0 -28 17 -20 30 7 11 28 13 38 4z"/>
<path d="M1939 596 c-13 -28 -20 -31 -35 -16 -17 17 -44 0 -65 -42 -24 -46
-18 -74 17 -81 23 -4 29 3 65 75 22 44 38 82 35 85 -3 3 -11 -6 -17 -21z m-39
-59 c0 -27 -33 -62 -49 -52 -15 9 -14 22 5 50 21 32 44 32 44 2z"/>
<path d="M3290 578 c1 -7 7 -24 15 -38 21 -37 18 -46 -6 -19 -15 17 -19 19
-15 7 19 -57 19 -54 4 -36 -7 9 -21 31 -31 49 -25 45 -33 29 -8 -18 28 -55 51
-81 57 -65 3 6 15 12 26 12 22 0 19 17 -13 83 -20 38 -29 46 -29 25z"/>
<path d="M1978 523 c-54 -62 -50 -123 8 -123 21 0 17 18 -6 25 -11 3 -20 13
-20 20 0 12 6 12 27 4 32 -12 43 0 43 47 0 20 -6 34 -16 38 -21 8 -19 9 -36
-11z m40 -30 c-4 -20 -18 -26 -37 -14 -18 12 -5 31 20 31 14 0 19 -6 17 -17z"/>
<path d="M3153 533 c-22 -8 -14 -23 12 -23 30 0 33 -16 5 -23 -22 -6 -26 -36
-10 -68 12 -22 37 -24 63 -4 18 13 18 16 -10 66 -28 53 -38 61 -60 52z m52
-73 c10 -16 -16 -43 -28 -31 -11 11 -2 41 12 41 5 0 13 -5 16 -10z"/>
<path d="M2798 498 c-16 -29 -14 -163 2 -183 15 -19 41 -19 65 -2 14 11 16 21
11 51 -5 27 -12 36 -23 34 -22 -4 -29 -28 -9 -28 9 0 16 -8 16 -20 0 -14 -7
-20 -24 -20 -20 0 -25 6 -31 40 -10 58 2 118 26 125 25 8 25 25 -1 25 -10 0
-25 -10 -32 -22z"/>
<path d="M2090 480 c-20 -20 -36 -81 -26 -105 6 -17 56 -21 56 -5 0 6 -6 10
-14 10 -7 0 -20 8 -27 17 -13 15 -11 16 19 10 29 -6 34 -4 43 20 19 51 -16 88
-51 53z m40 -30 c0 -21 -24 -28 -35 -10 -8 14 3 30 21 30 8 0 14 -9 14 -20z"/>
<path d="M2329 498 c-10 -31 -34 -180 -28 -183 4 -3 10 14 14 37 7 40 31 72
47 62 3 -2 5 -30 2 -62 -3 -51 -3 -54 7 -24 5 19 9 50 7 70 -3 31 -7 37 -26
36 -20 -1 -22 3 -16 33 3 18 3 33 0 33 -3 0 -6 -1 -7 -2z"/>
<path d="M3035 487 c-11 -7 -21 -12 -22 -13 -6 -1 29 -109 38 -118 12 -13 12
6 -2 40 -12 32 -4 77 13 72 6 -2 17 -22 25 -43 17 -50 39 -73 29 -31 -10 40
-39 99 -51 102 -5 2 -19 -3 -30 -9z"/>
<path d="M2205 453 c-20 -20 -19 -27 11 -62 22 -26 23 -32 10 -37 -9 -3 -23
-1 -31 6 -19 15 -30 7 -21 -15 4 -11 16 -15 38 -13 27 2 34 8 36 29 2 15 -5
32 -18 44 -29 26 -25 38 10 30 24 -5 29 -4 24 8 -8 22 -42 28 -59 10z"/>
<path d="M2950 465 c0 -6 5 -27 11 -48 8 -28 7 -42 -1 -53 -17 -20 -26 -11
-40 43 -16 62 -25 38 -10 -27 12 -51 31 -68 52 -46 7 7 19 11 26 8 15 -5 15
-6 -4 59 -15 50 -34 86 -34 64z"/>
<path d="M2450 415 c0 -8 7 -15 15 -15 8 0 15 -4 15 -10 0 -5 -9 -10 -20 -10
-25 0 -44 -35 -36 -66 5 -19 12 -23 41 -22 l35 1 0 57 c0 55 -11 80 -37 80 -7
0 -13 -7 -13 -15z m30 -79 c0 -15 -24 -28 -34 -19 -13 14 -5 33 14 33 11 0 20
-6 20 -14z"/>
<path d="M2552 350 c1 -55 2 -58 5 -18 4 43 25 79 39 65 3 -3 10 -30 14 -59
l8 -53 -1 65 -2 65 -32 0 -33 1 2 -66z"/>
</g>
</svg>
